<svg xmlns="http://www.w3.org/2000/svg" xmlns:xlink="http://www.w3.org/1999/xlink" width="512" height="512" viewBox="0 0 512 512"><path fill="#FABC3D" d="M504.1,256C504.1,119,393,7.9,256,7.9C119,7.9,7.9,119,7.9,256C7.9,393,119,504.1,256,504.1C393,504.1,504.1,393,504.1,256z"/><path fill="#FFF" d="M256 291.59999999999997A49.1 49.1 0 1 0 256 389.8A49.1 49.1 0 1 0 256 291.59999999999997Z"/><path fill="#FFF" d="M180,297c20.3-23.3,47.3-36.1,76-36.1c28.7,0,55.7,12.8,76,36.1c0,0,0,0,0,0l16-18.3c0,0,0,0,0,0C323.4,250.5,290.7,235,256,235s-67.4,15.5-91.9,43.7c0,0,0,0,0,0L180,297C180,297.1,180,297.1,180,297z"/><path fill="#FFF" d="M146.5,256.3c29.3-33.6,68.1-52.1,109.5-52.1c41.4,0,80.3,18.5,109.5,52.1c0,0,0,0,0,0l16-18.3c0,0,0,0,0,0c-33.5-38.5-78.1-59.7-125.5-59.7c-47.4,0-92,21.2-125.5,59.7c0,0,0,0,0,0L146.5,256.3C146.5,256.3,146.5,256.3,146.5,256.3z"/><path fill="#FFF" d="M113.2,216c38.1-43.8,88.8-67.9,142.8-67.9c53.9,0,104.6,24.1,142.8,67.9c0,0,0,0,0,0l16-18.3c0,0,0,0,0,0c-42.4-48.7-98.8-75.5-158.7-75.5c-60,0-116.3,26.8-158.7,75.5c0,0,0,0,0,0L113.2,216C113.2,216,113.2,216,113.2,216z"/><g><path fill="#32BEA6" d="M348.2 287.9A63.8 63.8 0 1 0 348.2 415.5A63.8 63.8 0 1 0 348.2 287.9Z"/><path fill="#FFF" d="M391.5,325.3c-1.8-4.8-5.6-4-9.7-3.2c-2.4,0.5-13.3,3.7-30.4,21.8c-7.1,7.5-11.8,13.5-14.9,18.1c-1.9-2.3-4.1-4.8-6.3-7.1c-7-7-14.8-11.8-15.1-12c-3.3-2-7.5-1-9.5,2.3c-2,3.3-1,7.5,2.3,9.6c0.1,0,6.8,4.2,12.5,10c5.9,5.9,11.2,13.9,11.3,14c1.3,2,3.5,3.1,5.8,3.1c0.4,0,0.8,0,1.2-0.1c2.7-0.5,4.9-2.5,5.6-5.2c0-0.1,2.8-7.7,17.3-23c11.7-12.4,19.5-16.3,22.2-17.4c0,0,0,0,0.1,0c0,0,0.1,0,0.3-0.1c0.5-0.2,0.7-0.2,0.7-0.2c-0.1,0-0.2,0-0.2,0l0,0c1.3-0.5,3.6-1.6,3.7-1.6C391.7,332.7,392.8,328.9,391.5,325.3z"/></g></svg>